# xmcd
#
# Track frame offsets: 
#        150
#        11457
#        28203
#        38237
#        49942
#        62990
#        76284
#        91161
#        105006
#        115480
#        127788
#        146907
#        158580
#        172177
#        187215
#        198748
#        218433
#        230432
#        240209
#        253902
#
# Disc length: 3601 seconds
#
# Revision: 0
# Processed by: cddbd v1.5.2PL0 Copyright (c) Steve Scherf et al.
# Submitted via: ExactAudioCopy v0.99pb5
#
DISCID=110e0f14
DTITLE=Various Artist - 100 Country hits [CD5]
DYEAR=2009
DGENRE=Country
TTITLE0=Don Gibson - Oh lonesome me
TTITLE1=The Oak Ridge boys - elvira
TTITLE2=Charley Pride - Is anybody goin' to San Antone
TTITLE3=Patsy Cline - Walking after mdnight
TTITLE4=Hank Williams - Jambalaya (on the Bayou)
TTITLE5=Tammy Wynette - D-I-V-O-R-C-E
TTITLE6=George Jones - He stopped loving her today
TTITLE7=Rex Allen - Don't go near the Indians
TTITLE8=jim Reeves - He'll have to go
TTITLE9=Glenn Campbell - By the time I get to Phoenix
TTITLE10=Bobbie Gentry - Ode to Billy Joe
TTITLE11=Freddy Fender - Before the next teardrop falls
TTITLE12=Ricky Skaggs - Something in my heart
TTITLE13=Jeanne Pruett - Satin sheets
TTITLE14=Billy Cash Craddock - Rub it in
TTITLE15=Marty Robbins - El Paso
TTITLE16=guy Mitchell - Heartaches by the number
TTITLE17=Faron Young - Hello walls
TTITLE18=Patti Page - tennessee waltz
TTITLE19=Cal Smith - Counrty bumpkin
EXTD=
EXTT0=
EXTT1=
EXTT2=
EXTT3=
EXTT4=
EXTT5=
EXTT6=
EXTT7=
EXTT8=
EXTT9=
EXTT10=
EXTT11=
EXTT12=
EXTT13=
EXTT14=
EXTT15=
EXTT16=
EXTT17=
EXTT18=
EXTT19=
PLAYORDER=
